<svg xmlns="http://www.w3.org/2000/svg" version="1.1" xmlns:xlink="http://www.w3.org/1999/xlink" xmlns:svgjs="http://svgjs.dev/svgjs" viewBox="0 0 800 800"><defs><filter id="uuunion-blur" x="-100%" y="-100%" width="400%" height="400%" color-interpolation-filters="sRGB">
        <feGaussianBlur in="SourceGraphic" stdDeviation="7 0" result="blur"></feGaussianBlur>
        <feDropShadow stdDeviation="27.07692307692308" in="blur" dx="22" dy="22" flood-color="hsl(273, 86%, 5%)" flood-opacity="0.38" x="0%" y="0%" width="100%" height="100%"></feDropShadow>
      </filter><filter id="uuunion-blur2" x="-100%" y="-100%" width="400%" height="400%" color-interpolation-filters="sRGB">
        <feGaussianBlur in="SourceGraphic" stdDeviation="7 0" result="blur"></feGaussianBlur>
        <feDropShadow stdDeviation="27.07692307692308" in="blur" dx="-22" dy="-22" flood-color="hsl(273, 86%, 5%)" flood-opacity="0.38" x="0%" y="0%" width="100%" height="100%"></feDropShadow>
      </filter><linearGradient gradientTransform="rotate(0, 0.5, 0.5)" x1="50%" y1="0%" x2="50%" y2="100%" id="uuunion-grad"><stop stop-color="2d2137" offset="10%"></stop><stop stop-color="hsl(273, 86%, 5%)" offset="90%"></stop></linearGradient><linearGradient gradientTransform="rotate(178, 0.5, 0.5)" x1="50%" y1="0%" x2="50%" y2="100%" id="uuunion-grad2"><stop stop-color="2d2137" offset="25%"></stop><stop stop-color="hsl(273, 86%, 5%)" offset="100%"></stop></linearGradient><linearGradient gradientTransform="rotate(173, 0.5, 0.5)" x1="50%" y1="0%" x2="50%" y2="100%" id="uuunion-grad3"><stop stop-color="2d2137" offset="0%"></stop><stop stop-color="hsl(273, 86%, 5%)" offset="75%"></stop></linearGradient></defs><path d="M-74.9 -79.44Q-61.05 -78.17 -47.19 -77.05 -33.33 -76.13 -19.47 -75.51 -5.61 -75.21 8.24 -75.27 22.09 -75.68 35.95 -76.41 49.81 -77.4 63.67 -78.59 77.53 -79.87 91.39 -81.17 105.24 -82.38 119.1 -83.41 132.96 -84.2 146.82 -84.67 160.68 -84.79 174.54 -84.56 188.4 -84 202.25 -83.13 216.11 -82.04 229.97 -80.79 243.83 -79.49 257.69 -78.22 271.55 -77.09 285.4 -76.16 299.26 -75.53 313.12 -75.22 326.98 -75.27 340.84 -75.66 354.7 -76.38 368.56 -77.36 382.41 -78.54 396.27 -79.82 410.13 -81.12 423.99 -82.34 437.85 -83.38 451.71 -84.17 465.56 -84.65 479.42 -84.79 493.28 -84.58 507.14 -84.02 521 -83.17 534.86 -82.08 548.71 -80.84 562.57 -79.54 576.43 -78.27 590.29 -77.13 604.15 -76.2 618.01 -75.55 631.87 -75.22 645.72 -75.26 659.58 -75.64 673.44 -76.34 687.3 -77.32 701.16 -78.49 715.02 -79.77 728.87 -81.07 742.73 -82.29 756.59 -83.34 770.45 -84.15 784.31 -84.64 798.17 -84.79 812.03 -84.59 813.92 -70.53 821.95 -56.46 835.38 -42.39 852.96 -28.33 873.06 -14.26 893.8 -0.19 913.25 13.86 929.62 27.93 941.36 41.99 947.41 56.06 947.18 70.13 940.71 84.19 928.59 98.26 911.96 112.33 892.35 126.39 871.59 140.46 851.62 154.53 834.28 168.59 821.19 182.66 813.58 196.72 812.13 210.79 817 224.86 827.72 238.92 843.31 252.99 862.31 267.06 882.95 281.12 903.31 295.19 921.51 309.25 935.85 323.32 944.99 337.39 948.09 351.45 944.86 365.52 935.6 379.59 921.17 393.65 902.91 407.72 882.52 421.78 861.89 435.85 842.95 449.92 827.45 463.98 816.84 478.05 812.1 492.12 813.67 506.18 821.41 520.25 834.6 534.31 852.01 548.38 872.02 562.45 892.77 576.51 912.34 590.58 928.89 604.65 940.9 618.71 947.25 632.78 947.35 646.84 941.18 660.91 929.32 674.98 912.88 689.04 893.37 703.11 872.63 717.18 852.57 731.24 835.06 745.31 821.73 759.38 813.81 773.44 812.05 787.51 814.78 807.19 798.84 814.94 784.73 821.88 770.62 833.12 756.51 847.82 742.39 864.91 728.28 883.1 714.17 901.07 700.06 917.48 685.95 931.12 671.84 940.98 657.73 946.33 643.62 946.78 629.51 942.29 615.4 933.19 601.29 920.17 587.17 904.17 573.06 886.39 558.95 868.14 544.84 850.76 530.73 835.54 516.62 823.61 502.51 815.85 488.4 812.82 474.29 814.77 460.18 821.53 446.06 832.62 431.95 847.21 417.84 864.22 403.73 882.4 389.62 900.4 375.51 916.89 361.4 930.66 347.29 940.68 333.18 946.21 319.07 946.85 304.96 942.55 290.84 933.62 276.73 920.73 262.62 904.83 248.51 887.09 234.4 868.83 220.29 851.39 206.18 836.07 192.07 823.99 177.96 816.06 163.85 812.85 149.73 814.6 135.62 821.19 121.51 832.13 107.4 846.6 93.29 863.54 79.18 881.7 65.07 899.73 50.96 916.3 36.85 930.19 22.74 940.37 8.62 946.09 -5.48 946.92 -19.59 942.8 -33.7 934.04 -47.81 921.29 -61.92 905.48 -76.03 887.79 -75.25 872.68 -74.91 857.56 -75.04 842.45 -75.63 827.34 -76.63 812.22 -77.94 797.11 -79.44 782 -81 766.88 -82.46 751.77 -83.69 736.66 -84.58 721.55 -85.04 706.43 -85.03 691.32 -84.56 676.21 -83.66 661.09 -82.42 645.98 -80.95 630.87 -79.4 615.75 -77.9 600.64 -76.6 585.53 -75.61 570.41 -75.03 555.3 -74.91 540.19 -75.27 525.08 -76.06 509.96 -77.22 494.85 -78.64 479.74 -80.18 464.62 -81.71 449.51 -83.08 434.4 -84.16 419.28 -84.85 404.17 -85.09 389.06 -84.86 373.94 -84.18 358.83 -83.1 343.72 -81.74 328.61 -80.22 313.49 -78.67 298.38 -77.25 283.27 -76.08 268.15 -75.28 253.04 -74.91 237.93 -75.02 222.81 -75.59 207.7 -76.57 192.59 -77.87 177.47 -79.37 162.36 -80.92 147.25 -82.39 132.14 -83.63 117.02 -84.54 101.91 -85.03 86.8 -85.04 71.68 -84.59 56.57 -83.71 41.46 -82.49 26.34 -81.03 11.23 -79.48 -3.87 -77.97 -18.99 -76.65 -34.1 -75.65 -49.21 -75.05 -64.33 -74.9 -79.44" fill="url(#uuunion-grad)"></path><path d="M-74.9 -79.44Q-75.05 -64.33 -75.65 -49.21 -76.65 -34.1 -77.97 -18.99 -79.48 -3.87 -81.03 11.23 -82.49 26.34 -83.71 41.46 -84.59 56.57 -85.04 71.68 -85.03 86.8 -84.54 101.91 -83.63 117.02 -82.39 132.14 -80.92 147.25 -79.37 162.36 -77.87 177.47 -76.57 192.59 -75.59 207.7 -75.02 222.81 -74.91 237.93 -75.28 253.04 -76.08 268.15 -77.25 283.27 -78.67 298.38 -80.22 313.49 -81.74 328.61 -83.1 343.72 -84.18 358.83 -84.86 373.94 -85.09 389.06 -84.85 404.17 -74.13 410.57 -63.4 416.62 -52.67 422.12 -41.95 426.89 -31.22 430.77 -20.5 433.64 -0.39 435.83 3.08 435.97 16.52 428.12 29.97 418.55 43.38 407.48 56.72 395.19 69.92 382.01 82.95 368.32 95.78 354.51 108.37 340.98 120.69 328.08 132.73 316.14 144.47 305.43 155.91 296.15 167.05 288.41 177.91 282.25 188.51 277.63 198.87 274.42 209.03 272.43 219.04 271.4 228.96 271.05 238.82 271.05 248.7 271.07 258.66 270.78 268.76 269.9 279.06 268.17 289.64 265.37 300.54 261.37 311.82 256.08 323.54 249.5 335.74 241.68 348.44 232.74 361.69 222.87 375.49 212.27 389.84 201.21 404.75 189.93 420.18 178.7 436.12 167.79 452.52 157.42 469.32 147.79 486.47 139.03 503.88 131.25 521.49 124.49 539.2 118.72 556.92 113.9 574.55 109.9 591.99 106.57 609.15 103.73 625.92 101.18 642.2 98.72 657.93 96.14 673 93.25 687.35 89.91 700.92 85.97 713.65 81.34 725.53 75.98 736.51 69.88 746.6 63.06 755.82 55.61 764.18 47.63 771.73 39.23 778.54 30.55 784.67 21.76 790.22 12.98 795.29 4.37 800 -3.97 778.32 -21.01 759.38 -38.06 745.57 -55.11 738.62 -72.16 739.42 -89.21 747.87 -106.26 765.45 -131.71 753.42 -139.87 738.83 -139.64 724.25 -139.43 709.66 -139.26 695.07 -139.15 680.48 -139.1 665.9 -139.11 651.31 -139.19 636.72 -139.33 622.14 -139.51 607.55 -139.73 592.96 -139.97 578.37 -140.21 563.79 -140.44 549.2 -140.63 534.61 -140.78 520.02 -140.87 505.44 -140.89 490.85 -140.85 476.26 -140.75 461.68 -140.59 447.09 -140.39 432.5 -140.16 417.91 -139.92 403.33 -139.68 388.74 -139.47 374.15 -139.29 359.56 -139.17 344.98 -139.1 330.39 -139.1 315.8 -139.17 301.22 -139.3 286.63 -139.47 272.04 -139.69 257.45 -139.93 242.87 -140.17 228.28 -140.4 213.69 -140.6 199.1 -140.76 184.52 -140.86 169.93 -140.89 155.34 -140.87 140.76 -140.78 126.17 -140.63 111.58 -140.43 96.99 -140.21 82.41 -139.96 67.82 -139.72 53.23 -139.5 38.64 -139.32 24.06 -139.19 9.47 -139.11 -5.11 -139.1 -19.69 -139.15 -34.28 -139.27 -48.87 -139.44 -63.46 -139.65 -78.04 -139.88 -92.63 -140.13 -107.22 -140.36 -121.81 -140.57 -129.42 -128.14 -110.81 -111.5 -101.49 -103.76 -92.42 -95.83 -83.57 -87.72 -74.9 -79.44" fill="url(#uuunion-grad2)" filter="url(#uuunion-blur)"></path><path d="M859.05 385.7Q869.78 379.96 880.51 374.88 891.23 370.63 901.96 367.35 912.68 365.14 923.41 364.09 934.87 371.9 921.17 393.65 902.91 407.72 882.52 421.78 861.89 435.85 842.95 449.92 827.45 463.98 816.84 478.05 812.1 492.12 813.67 506.18 821.41 520.25 834.6 534.31 852.01 548.38 872.02 562.45 892.77 576.51 912.34 590.58 928.89 604.65 940.9 618.71 947.25 632.78 947.35 646.84 941.18 660.91 929.32 674.98 912.88 689.04 893.37 703.11 872.63 717.18 852.57 731.24 835.06 745.31 821.73 759.38 813.81 773.44 812.05 787.51 815.36 807.21 801.16 814.25 788.21 819.74 775.26 828.99 762.31 841.42 749.36 856.25 736.41 872.56 723.46 889.34 710.51 905.53 697.56 920.13 684.61 932.23 671.66 941.07 658.71 946.11 645.76 947.03 632.81 943.77 619.86 936.54 606.91 925.78 593.97 912.17 581.02 896.56 568.07 879.91 555.12 863.27 542.17 847.67 529.22 834.09 516.27 823.36 503.32 816.17 490.37 812.95 477.42 813.91 464.47 818.99 451.52 827.87 438.57 840 425.62 854.62 412.67 870.82 399.72 887.6 386.77 903.9 373.82 918.71 360.87 931.11 347.92 940.32 334.97 945.77 322.02 947.13 309.07 944.3 296.12 937.47 283.17 927.05 270.22 913.7 257.27 898.25 244.32 881.66 231.37 864.97 218.42 849.22 205.47 835.38 192.52 824.32 179.57 816.74 166.62 813.09 153.67 813.61 140.72 818.28 127.77 826.78 114.82 838.6 101.87 853.01 88.93 869.09 75.98 885.85 63.03 902.25 50.08 917.26 37.13 929.95 24.18 939.53 4.7 940.96 -1.88 925.88 -1.92 915.23 -1.91 904.58 -1.87 893.93 -1.79 883.28 -1.36 867.31 -0.57 862 11.57 853.75 23.96 842.47 36.59 828.44 49.47 812.09 62.61 793.99 75.98 774.75 89.57 755.06 103.37 735.61 117.33 717.08 131.43 700.09 145.61 685.15 159.83 672.7 174.04 663.02 188.19 656.23 202.21 652.33 216.07 651.15 229.69 652.4 243.05 655.65 256.08 660.4 268.76 666.04 281.05 671.97 292.92 677.55 304.36 682.17 315.36 685.31 325.92 686.49 336.07 685.38 345.81 681.73 355.19 675.46 364.25 666.6 373.03 655.35 381.61 641.98 390.04 626.9 398.41 610.59 406.78 593.58 415.25 576.45 423.9 559.74 432.8 543.99 442.05 529.67 451.72 517.17 461.89 506.77 472.62 498.66 483.98 492.88 496.01 489.38 508.75 487.97 522.22 488.36 536.45 490.19 551.43 493 567.14 496.32 583.56 499.65 600.64 502.49 618.33 504.39 636.55 504.95 655.23 503.85 674.26 500.84 693.55 495.81 712.98 488.74 732.43 479.7 751.79 468.88 770.92 456.55 789.71 443.06 808.03 428.8 825.77 414.2 842.81 399.69 859.05 385.7 859.05 385.7 859.05 385.7" fill="url(#uuunion-grad3)" filter="url(#uuunion-blur2)"></path></svg>