<?xml version="1.0" standalone="no"?>
<svg viewBox="0 0 200 200" xmlns="http://www.w3.org/2000/svg">
  <path fill="#FF0066" d="M43.4,-73.8C57.3,-67.1,70.2,-57.6,78.4,-44.8C86.5,-32,89.8,-16,90.3,0.3C90.8,16.6,88.5,33.2,80.6,46.3C72.6,59.4,59,69,44.6,72.3C30.2,75.5,15.1,72.5,2,69C-11.1,65.5,-22.1,61.5,-35.5,57.6C-48.9,53.8,-64.6,50.1,-69.9,40.5C-75.1,30.9,-69.8,15.5,-69.1,0.4C-68.5,-14.7,-72.4,-29.3,-67.1,-38.8C-61.8,-48.3,-47.3,-52.7,-34.6,-60C-21.9,-67.4,-11,-77.8,1.9,-81C14.8,-84.3,29.5,-80.5,43.4,-73.8Z" transform="translate(100 100)" />
</svg>
