<?xml version="1.0" standalone="no"?>
<svg viewBox="0 0 200 200" xmlns="http://www.w3.org/2000/svg">
  <path fill="#FF0066" d="M44.8,-79.1C57.5,-70.3,66.9,-57.1,73.1,-43.2C79.3,-29.3,82.3,-14.7,80.6,-1C78.9,12.7,72.5,25.4,65.2,37.3C57.8,49.2,49.5,60.3,38.5,66.3C27.4,72.3,13.7,73.3,1.6,70.6C-10.6,67.9,-21.2,61.5,-33.8,56.4C-46.5,51.3,-61.1,47.5,-70.1,38.3C-79,29.1,-82.4,14.6,-81.5,0.5C-80.6,-13.5,-75.3,-27,-69,-40.7C-62.6,-54.4,-55.1,-68.4,-43.4,-77.8C-31.7,-87.3,-15.9,-92.1,0.1,-92.3C16.1,-92.5,32.1,-88,44.8,-79.1Z" transform="translate(100 100)" />
</svg>
