<?xml version="1.0" standalone="no"?>
<svg viewBox="0 0 200 200" xmlns="http://www.w3.org/2000/svg">
  <path fill="#FF0066" d="M41.1,-73.8C53.2,-64.3,62.9,-53.1,66.6,-40.5C70.4,-27.9,68.3,-13.9,68.9,0.3C69.5,14.6,72.7,29.2,68.9,41.9C65.2,54.5,54.5,65.2,41.9,68.5C29.2,71.8,14.6,67.7,-0.6,68.8C-15.9,69.9,-31.7,76.2,-43.4,72.3C-55.1,68.5,-62.6,54.4,-67.8,40.7C-73,27,-76.1,13.5,-75.3,0.4C-74.6,-12.6,-70.1,-25.2,-62.9,-35.6C-55.7,-46,-45.8,-54.1,-34.9,-64.2C-23.9,-74.4,-12,-86.6,1.3,-88.8C14.5,-91,29.1,-83.3,41.1,-73.8Z" transform="translate(100 100)" />
</svg>
