<?xml version="1.0" standalone="no"?>
<svg viewBox="0 0 200 200" xmlns="http://www.w3.org/2000/svg">
  <path fill="#FF0066" d="M34.6,-61.1C46.7,-53,59.5,-47.4,67.3,-37.6C75.1,-27.9,77.9,-13.9,77.7,-0.1C77.5,13.7,74.3,27.4,68.3,40.2C62.3,53,53.3,64.9,41.4,69.4C29.6,73.8,14.8,70.8,1.1,68.9C-12.7,67.1,-25.3,66.4,-34.9,60.7C-44.4,54.9,-50.9,44,-56.2,33C-61.4,22.1,-65.5,11,-69.2,-2.1C-72.9,-15.3,-76.1,-30.5,-71.9,-43.5C-67.8,-56.4,-56.3,-67,-43.1,-74.5C-29.9,-82,-14.9,-86.4,-1.8,-83.2C11.3,-80,22.5,-69.3,34.6,-61.1Z" transform="translate(100 100)" />
</svg>
